# xmcd CD database file
#
# Track frame offsets:
#	150
#	11387
#	24100
#	38197
#	58287
#	69330
#	80555
#	94062
#	106827
#	124055
#
# Disc length: 1791 seconds
#
# Revision: 2
# Processed by: cddbd v1.5.1PL2 Copyright (c) Steve Scherf et al.
# Submitted via: CDex 1.70beta2
#
DISCID=7406fd0a
DTITLE=Various Artist - Country Divas (Disk 2)
DYEAR=2003
DGENRE=Country
TTITLE0=Tell Me I'm Only Dreaming
TTITLE1=The Heart
TTITLE2=Better Things To Do
TTITLE3=Under The Boardwalk
TTITLE4=A Little Bit In Love
TTITLE5=Heaven's Just A Sin Away
TTITLE6=Somebody's Knockin
TTITLE7=Can I See You Tonight
TTITLE8=Shut Up And Drive
TTITLE9=Burnin' Old Memories
EXTD=YEAR: 2003
EXTT0=
EXTT1=
EXTT2=
EXTT3=
EXTT4=
EXTT5=
EXTT6=
EXTT7=
EXTT8=
EXTT9=
PLAYORDER=
